<?xml version="1.0" encoding="utf-8"?>
<svg version="1.1" xmlns="http://www.w3.org/2000/svg"
     viewBox="0 0 40 40" xml:space="preserve">
<path fill="#FFFFFF" d="M8,26H2c-1.1,0-2,0.9-2,2v6c0,1.1,0.9,2,2,2h6c1.1,0,2-0.9,2-2v-6C10,26.9,9.1,26,8,26z M6.5,21h12v3h3v-3h12v3
	h3v-3.6c0-1.3-1.1-2.4-2.4-2.4H21.5v-4H24c1.1,0,2-0.9,2-2V6c0-1.1-0.9-2-2-2h-8c-1.1,0-2,0.9-2,2v6c0,1.1,0.9,2,2,2h2.5v4H5.9
	c-1.3,0-2.4,1.1-2.4,2.4V24h3V21z M23,26h-6c-1.1,0-2,0.9-2,2v6c0,1.1,0.9,2,2,2h6c1.1,0,2-0.9,2-2v-6C25,26.9,24.1,26,23,26z
	 M38,26h-6c-1.1,0-2,0.9-2,2v6c0,1.1,0.9,2,2,2h6c1.1,0,2-0.9,2-2v-6C40,26.9,39.1,26,38,26z"/>
</svg>
