<?xml version="1.0" encoding="utf-8"?>
<!-- Generator: Adobe Illustrator 25.2.1, SVG Export Plug-In . SVG Version: 6.00 Build 0)  -->
<svg version="1.1" id="Camada_1" xmlns="http://www.w3.org/2000/svg" xmlns:xlink="http://www.w3.org/1999/xlink" x="0px" y="0px"
	 viewBox="0 0 24 24" style="enable-background:new 0 0 24 24;" xml:space="preserve">
<style type="text/css">
	.st0{fill:#479487;}
	.st1{fill:#FFFFFF;}
	.st2{fill:#E1AE18;}
</style>
<g id="Camada_2_1_">
</g>
<g id="Camada_3">
</g>
<g id="g4698" transform="translate(358.0704,317.9496)">
	<path id="path4700" class="st0" d="M-335-304c0-5-4.1-9.1-9.1-9.1v9.1H-335z"/>
</g>
<g id="g4706" transform="translate(310.1558,283.2366)">
	<path class="st1" d="M-299.4-260.4c-2.5-0.1-4.8-1.1-6.4-2.7c-1.6-1.6-2.7-3.8-2.7-6.3h9L-299.4-260.4z"/>
	<path class="st1" d="M-299.3-269.6l-0.1,9.2l-0.1-9h-9c0,2.5,1.1,4.7,2.7,6.3c1.6,1.6,3.9,2.6,6.4,2.7c-5.1,0.1-9.2-4-9.2-9v-0.2
		H-299.3z"/>
</g>
<g id="g4730">
	<g>
		<g id="g4732">
			<g id="g4738" transform="translate(282.4367,331.8409)">
				<path id="path4740" class="st2" d="M-278.8-321.5c-0.1-5,3.9-9.2,8.9-9.2l0.2,9.1L-278.8-321.5z"/>
			</g>
		</g>
	</g>
</g>
</svg>
