<svg width="40" height="40" viewBox="0 0 40 40" fill="none" xmlns="http://www.w3.org/2000/svg">
<path fill-rule="evenodd" clip-rule="evenodd" d="M2.90015 19.5359C2.90015 19.8592 2.90842 20.1806 2.92478 20.4998C3.09086 23.7417 4.08986 26.7645 5.71237 29.3585C5.98993 29.8023 6.28574 30.2335 6.59875 30.6511C6.62463 30.6856 6.65063 30.7201 6.67675 30.7544C6.95928 31.126 7.25551 31.4866 7.56468 31.8355L9.12685 30.3025C8.81773 29.9494 8.52522 29.5852 8.24972 29.2109C8.2199 29.1703 8.19029 29.1297 8.16088 29.089C7.85236 28.6615 7.5658 28.2211 7.3018 27.7691C6.01584 25.5674 5.26484 23.0906 5.11537 20.4998C5.09693 20.1802 5.08765 19.8587 5.08765 19.5359L5.08769 19.4998H2.90018L2.90015 19.5359Z" fill="white"/>
<path d="M25.3497 13.1269C25.4488 12.7167 25.5001 12.2942 25.5001 11.8671C25.5001 9.02766 23.276 6.68351 20.5001 6.68351C17.7236 6.68375 15.5001 9.02774 15.5001 11.8671C15.5003 14.7071 17.7237 17.0505 20.5001 17.0507C21.6294 17.0507 22.7342 16.6493 23.6134 15.9237L23.8116 15.7597L23.9923 15.6093V15.5732C24.5515 15.008 24.9713 14.3225 25.2247 13.5566L25.3497 13.4296V13.1269ZM20.5001 8.7714C22.1097 8.7714 23.4552 10.1421 23.4552 11.8671C23.4552 12.1191 23.4259 12.3694 23.3702 12.6083L23.3497 12.6923L23.3243 12.7792L23.2491 13.0048C23.0577 13.5149 22.7424 13.9574 22.3273 14.2997L22.2804 14.3378C21.7642 14.7487 21.1515 14.9628 20.5001 14.9628C18.89 14.9626 17.5452 13.5927 17.545 11.8671C17.545 10.1423 18.8898 8.77165 20.5001 8.7714Z" fill="white"/>
<path fill-rule="evenodd" clip-rule="evenodd" d="M38.0127 17.4113C38.6416 16.8569 38.9999 16.0576 39 15.2102C38.9923 13.6183 37.7113 12.3041 36.125 12.3039C35.9751 12.3039 35.8266 12.3159 35.6855 12.3381C35.1015 12.428 34.5666 12.6957 34.1416 13.1076C33.5725 13.6554 33.2481 14.4238 33.248 15.217C33.248 15.6239 33.3335 16.022 33.4922 16.3879C30.3345 17.5516 25.9739 18.9442 22.2314 19.3596L21.4482 19.4328C21.1543 19.4545 20.8622 19.4695 20.582 19.4758C20.4472 19.4802 20.3118 19.4817 20.1777 19.4817H20.1387C20.0026 19.4812 19.8645 19.479 19.7246 19.4738L19.2988 19.4514C15.5949 19.2054 11.0408 17.5121 7.64355 16.008C7.71511 15.7521 7.75293 15.4876 7.75293 15.217C7.75285 14.3416 7.3686 13.5179 6.69629 12.9611C6.24219 12.585 5.69028 12.3618 5.10547 12.3147C5.03089 12.308 4.95474 12.3039 4.87598 12.3039C3.7612 12.304 2.74237 12.9643 2.27344 13.9787C2.09207 14.3673 2.00004 14.7847 2 15.217C2 15.3977 2.0173 15.5833 2.05176 15.7629L2.06445 15.8293C2.23922 16.6616 2.76706 17.3733 3.51074 17.7824C3.92878 18.0104 4.40093 18.131 4.87598 18.1311C4.9904 18.1311 5.09869 18.1231 5.20312 18.1106C5.52737 18.0733 5.84346 17.981 6.13867 17.8361C6.1955 17.8079 6.24998 17.7757 6.30438 17.7434L6.31934 17.7346C9.6633 19.2491 14.4052 21.087 18.5342 21.5041L12.3232 30.9328C12.1802 30.9105 12.0347 30.8967 11.8877 30.8967C11.3403 30.8967 10.8134 31.0507 10.3564 31.344L10.1641 31.4787C9.69229 31.8351 9.34568 32.3238 9.16211 32.883C9.06281 33.18 9.01173 33.4919 9.01172 33.8088C9.01172 35.4082 10.2948 36.7219 11.8877 36.7219C12.649 36.7218 13.368 36.4227 13.9092 35.8811C14.3274 35.463 14.6053 34.9308 14.7129 34.3488C14.7469 34.1702 14.7637 33.9881 14.7637 33.8088C14.7636 33.1434 14.543 32.5079 14.1367 31.9944L20.3691 22.5344L26.6963 32.1399C26.3595 32.6272 26.1758 33.2116 26.1758 33.8088C26.1758 33.9715 26.1891 34.1354 26.2158 34.2902C26.3122 34.8765 26.5802 35.4131 26.9883 35.8371C27.5336 36.4066 28.2681 36.7219 29.0527 36.7219C29.3298 36.7219 29.6058 36.681 29.8672 36.6037C30.4315 36.4342 30.9253 36.0975 31.2939 35.634C31.7042 35.1187 31.9287 34.4701 31.9287 33.8088C31.9287 33.4638 31.8689 33.1253 31.752 32.8049C31.5506 32.2473 31.1882 31.7706 30.71 31.4289C30.2248 31.0805 29.6507 30.8968 29.0527 30.8967C28.8444 30.8967 28.6364 30.9181 28.4336 30.9631L22.1914 21.4846C26.713 21.0368 31.9533 19.2599 35.25 17.9904C35.3538 18.0243 35.4609 18.055 35.5674 18.0764C35.7488 18.1119 35.9364 18.1311 36.125 18.1311C36.1702 18.1311 36.2207 18.1294 36.2656 18.1272L36.2803 18.1252C36.6278 18.1069 36.9645 18.0263 37.2773 17.8869C37.5469 17.7681 37.7939 17.6057 38.0127 17.4113Z" fill="white"/>
<path fill-rule="evenodd" clip-rule="evenodd" d="M37.2006 19.5681L37.2004 19.4998H35.1692L35.1693 19.5681C35.1693 19.8802 35.1619 20.1908 35.1472 20.4998C35.0278 23.0125 34.4261 25.4163 33.3971 27.5685C33.1989 27.9831 32.9848 28.3884 32.7552 28.7833C32.7288 28.8287 32.7021 28.8741 32.6753 28.9193C32.4193 29.3502 32.1448 29.7685 31.8522 30.1728L33.3588 31.6513C33.6485 31.2575 33.9242 30.8497 34.1851 30.4291C34.2163 30.3788 34.2473 30.3283 34.278 30.2776C34.5091 29.8971 34.7281 29.5063 34.9345 29.106C36.2462 26.5616 37.0475 23.6301 37.1808 20.4998C37.1939 20.1911 37.2006 19.8805 37.2006 19.5681Z" fill="white"/>
<path fill-rule="evenodd" clip-rule="evenodd" d="M25.1175 35.1305L25.9429 36.9414C24.1964 37.4077 22.3347 37.659 20.4042 37.659C18.5366 37.659 16.7336 37.4237 15.0367 36.9862L15.8629 35.1734C17.3169 35.5271 18.8424 35.7108 20.4042 35.7108C22.0272 35.7107 23.6121 35.5124 25.1175 35.1305Z" fill="white"/>
<path fill-rule="evenodd" clip-rule="evenodd" d="M20.4042 37.659C18.5366 37.659 16.7336 37.4237 15.0367 36.9862L15.8629 35.1734C17.3169 35.5271 18.8424 35.7108 20.4042 35.7108C22.0272 35.7107 23.6121 35.5124 25.1175 35.1305L25.9429 36.9414C24.1964 37.4077 22.3347 37.659 20.4042 37.659Z" fill="white"/>
<path fill-rule="evenodd" clip-rule="evenodd" d="M30.9624 8.60938C31.3221 8.98029 31.6612 9.36669 31.979 9.76719C32.3178 10.1942 32.6324 10.6372 32.9221 11.0945L34.7881 10.1466C34.5039 9.6839 34.1993 9.23584 33.8755 8.8038C32.9447 7.56213 31.8553 6.45278 30.6382 5.50781C30.3424 5.27832 30.0384 5.05788 29.7281 4.84863C27.0605 3.04701 23.8683 2 20.44 2C16.9763 2.00007 13.7532 3.06913 11.0689 4.90625C10.7591 5.11674 10.457 5.33933 10.1626 5.57129C9.01441 6.47296 7.98155 7.52234 7.09053 8.69142C6.76286 9.12135 6.45437 9.56747 6.16638 10.0284L8.034 10.9771C8.32809 10.5219 8.64699 10.0811 8.99014 9.65639C9.28186 9.29537 9.5911 8.94601 9.91752 8.60938C10.2658 8.2502 10.6285 7.91089 11.0035 7.59277L11.3833 7.28125C11.6603 7.0612 11.944 6.85165 12.233 6.65332C14.6467 4.99987 17.4766 4.11335 20.44 4.11328C23.3712 4.11328 26.1726 4.98132 28.5689 6.60059C28.8589 6.7958 29.144 7.00378 29.4214 7.22168C29.9599 7.64329 30.4753 8.107 30.9624 8.60938Z" fill="white"/>
</svg>